<?xml version="1.0" encoding="utf-8"?>
<!-- Generator: Adobe Illustrator 22.1.0, SVG Export Plug-In . SVG Version: 6.00 Build 0)  -->
<svg version="1.1" id="Calque_1" xmlns="http://www.w3.org/2000/svg" xmlns:xlink="http://www.w3.org/1999/xlink" x="0px" y="0px"
	 viewBox="0 0 65 51.7" style="enable-background:new 0 0 65 51.7;" xml:space="preserve">
<style type="text/css">
	.st0{fill:#DBE0E1;}
	.st1{opacity:0.5;fill:#809CFF;}
	.st2{fill:#7B9A56;}
	.st3{fill:#88BD6D;}
	.st4{opacity:0.5;fill:#8C9093;}
</style>
<g>
	<g>
		
			<rect x="13.4" y="-1.4" transform="matrix(0.2121 -0.9772 0.9772 0.2121 1.5082 53.5968)" class="st0" width="41.1" height="54.5"/>
		
			<rect x="17.9" y="3.1" transform="matrix(0.2121 -0.9772 0.9772 0.2121 1.5079 53.5964)" class="st1" width="32.1" height="45.6"/>
		<polyline class="st2" points="29.2,32.2 43.8,22.8 53.4,37.8 		"/>
		<polyline class="st3" points="10.2,27.9 29.7,14.1 42.1,35.3 		"/>
		<rect x="27.1" y="14.4" transform="matrix(0.2121 -0.9772 0.9772 0.2121 -11.4862 60.112)" class="st3" width="9" height="45.6"/>
	</g>
	<g>
		<polygon class="st4" points="36.2,5.5 10.5,5.5 3,40.4 31.8,46.6 56,46.6 56,9.6 		"/>
		<rect y="4" class="st0" width="54.5" height="41.1"/>
		<rect x="4.5" y="8.5" class="st1" width="45.6" height="32.1"/>
		<polyline class="st2" points="23.9,31.5 36.2,19.3 48.7,31.9 		"/>
		<polyline class="st3" points="4.5,31.4 20.6,13.8 37.2,31.9 		"/>
		<rect x="4.5" y="31.7" class="st3" width="45.6" height="9"/>
	</g>
</g>
</svg>
