<?xml version="1.0" encoding="utf-8"?>
<!-- Generator: Adobe Illustrator 22.1.0, SVG Export Plug-In . SVG Version: 6.00 Build 0)  -->
<svg version="1.1" id="Calque_1" xmlns="http://www.w3.org/2000/svg" xmlns:xlink="http://www.w3.org/1999/xlink" x="0px" y="0px"
	 viewBox="0 0 46 46" style="enable-background:new 0 0 46 46;" xml:space="preserve">
<style type="text/css">
	.st0{fill:#DC4335;}
	.st1{fill:#FFFFFF;}
</style>
<rect class="st0" width="46" height="46"/>
<g>
	<path class="st1" d="M17.3,21.6V25H23c-0.2,1.5-1.7,4.3-5.7,4.3c-3.4,0-6.2-2.8-6.2-6.3s2.8-6.3,6.2-6.3c1.9,0,3.2,0.8,4,1.5
		l2.7-2.6C22.2,14,20,13,17.3,13c-5.5,0-10,4.5-10,10s4.5,10,10,10c5.8,0,9.6-4.1,9.6-9.8c0-0.7-0.1-1.2-0.2-1.7H17.3L17.3,21.6z"/>
	<path class="st1" d="M38.7,21.6h-2.9v-2.9H33v2.9h-2.9v2.9H33v2.9h2.9v-2.9h2.9V21.6z"/>
</g>
</svg>
