<?xml version="1.0" encoding="utf-8"?>
<!-- Generator: Adobe Illustrator 22.1.0, SVG Export Plug-In . SVG Version: 6.00 Build 0)  -->
<svg version="1.1" id="Calque_1" xmlns="http://www.w3.org/2000/svg" xmlns:xlink="http://www.w3.org/1999/xlink" x="0px" y="0px"
	 viewBox="0 0 16 16.4" style="enable-background:new 0 0 16 16.4;" xml:space="preserve">
<style type="text/css">
	.st0{fill:#FFFFFF;}
</style>
<g>
	<path class="st0" d="M14.2,2.2h-0.7V1.5C13.5,0.7,12.9,0,12,0h-0.6c-0.8,0-1.5,0.7-1.5,1.5v0.7H6.2V1.5C6.2,0.7,5.5,0,4.6,0H4
		C3.2,0,2.5,0.7,2.5,1.5v0.7H1.8C0.8,2.2,0,3,0,4v10.6c0,1,0.8,1.8,1.8,1.8h12.4c1,0,1.8-0.8,1.8-1.8V4C16,3,15.2,2.2,14.2,2.2z
		 M11.1,1.5c0-0.2,0.2-0.3,0.3-0.3H12c0.2,0,0.3,0.2,0.3,0.3v2c0,0.2-0.2,0.3-0.3,0.3h-0.6c-0.2,0-0.3-0.2-0.3-0.3V1.5z M3.7,1.5
		c0-0.2,0.2-0.3,0.3-0.3h0.6c0.2,0,0.3,0.2,0.3,0.3v2c0,0.2-0.2,0.3-0.3,0.3H4c-0.2,0-0.3-0.2-0.3-0.3V1.5z M14.2,14.7H1.8V6.4h12.4
		V14.7z"/>
</g>
</svg>
