<?xml version="1.0" encoding="utf-8"?>
<!-- Generator: Adobe Illustrator 22.1.0, SVG Export Plug-In . SVG Version: 6.00 Build 0)  -->
<svg version="1.1" id="Calque_1" xmlns="http://www.w3.org/2000/svg" xmlns:xlink="http://www.w3.org/1999/xlink" x="0px" y="0px"
	 viewBox="0 0 59.8 59.8" style="enable-background:new 0 0 59.8 59.8;" xml:space="preserve">
<style type="text/css">
	.st0{fill:#E7BF4A;}
	.st1{fill:#C79F36;}
	.st2{fill:#A8822B;}
	.st3{fill:#E5E9EA;}
	.st4{fill:#CF7038;}
</style>
<rect class="st0" width="59.8" height="59.8"/>
<rect y="29.9" class="st1" width="59.8" height="29.9"/>
<rect x="4.7" y="5.6" class="st2" width="22.4" height="22.4"/>
<rect x="32.7" y="5.6" class="st2" width="22.4" height="22.4"/>
<rect x="4.7" y="34.6" class="st2" width="22.4" height="22.4"/>
<rect x="32.7" y="34.6" class="st2" width="22.4" height="22.4"/>
<rect x="4.7" y="3.7" class="st3" width="22.4" height="22.4"/>
<rect x="32.7" y="3.7" class="st3" width="22.4" height="22.4"/>
<rect x="4.7" y="32.7" class="st3" width="22.4" height="22.4"/>
<rect x="32.7" y="32.7" class="st3" width="22.4" height="22.4"/>
<polygon class="st4" points="22.4,13.1 17.7,13.1 17.7,8.4 14,8.4 14,13.1 9.3,13.1 9.3,16.8 14,16.8 14,21.5 17.7,21.5 17.7,16.8 
	22.4,16.8 "/>
<polygon class="st4" points="21.8,47.2 18.5,43.9 21.8,40.6 19.2,38 15.9,41.3 12.6,38 9.9,40.6 13.2,43.9 9.9,47.2 12.6,49.8 
	15.9,46.5 19.2,49.8 "/>
<polygon class="st4" points="50.4,13.1 45.8,13.1 42,13.1 37.4,13.1 37.4,16.8 42,16.8 45.8,16.8 50.4,16.8 "/>
<polygon class="st4" points="50.4,39.2 45.8,39.2 42,39.2 37.4,39.2 37.4,43 42,43 45.8,43 50.4,43 "/>
<polygon class="st4" points="50.4,45.8 45.8,45.8 42,45.8 37.4,45.8 37.4,49.5 42,49.5 45.8,49.5 50.4,49.5 "/>
</svg>
