<?xml version="1.0" encoding="utf-8"?>
<!-- Generator: Adobe Illustrator 22.1.0, SVG Export Plug-In . SVG Version: 6.00 Build 0)  -->
<svg version="1.1" id="Calque_1" xmlns="http://www.w3.org/2000/svg" xmlns:xlink="http://www.w3.org/1999/xlink" x="0px" y="0px"
	 viewBox="0 0 15.8 15" style="enable-background:new 0 0 15.8 15;" xml:space="preserve">
<style type="text/css">
	.st0{fill:#FFFFFF;}
</style>
<g>
	<path class="st0" d="M6.6,4.9L10,2.5l2,2.4h1.6l-1.6-4.4c-0.1-0.3-0.5-0.5-0.8-0.4L0.4,3.9C0.1,4-0.1,4.4,0,4.8l1.7,4.7V6.9
		c0-1.1,0.9-2.1,2-2.1L6.6,4.9L6.6,4.9z"/>
	<path class="st0" d="M15.2,6.3H3.8c-0.3,0-0.6,0.3-0.6,0.6v7.4c0,0.3,0.3,0.6,0.6,0.6h11.4c0.3,0,0.6-0.3,0.6-0.6V6.9
		C15.8,6.6,15.5,6.3,15.2,6.3z M6.3,8c0.4,0,0.8,0.4,0.8,0.8c0,0.4-0.4,0.8-0.8,0.8c-0.4,0-0.8-0.4-0.8-0.8C5.5,8.4,5.8,8,6.3,8z
		 M14.3,13.4H4.8V12l1.5-1.3l2.2,0.6l2-2.1l3.8,1.6L14.3,13.4L14.3,13.4z"/>
</g>
</svg>
