<?xml version="1.0" encoding="utf-8"?>
<!-- Generator: Adobe Illustrator 22.1.0, SVG Export Plug-In . SVG Version: 6.00 Build 0)  -->
<svg version="1.1" id="Calque_1" xmlns="http://www.w3.org/2000/svg" xmlns:xlink="http://www.w3.org/1999/xlink" x="0px" y="0px"
	 viewBox="0 0 59.5 41.5" style="enable-background:new 0 0 59.5 41.5;" xml:space="preserve">
<style type="text/css">
	.st0{fill:#4FA3BF;}
	.st1{fill:#FFF6F7;}
	.st2{fill:#2A8097;}
	.st3{fill:#EBBB3B;}
	.st4{fill:#E83333;}
</style>
<g>
	<path class="st0" d="M59.5,35.1c0,3.5-2.9,6.4-6.4,6.4H6.4c-3.5,0-6.4-2.9-6.4-6.4V6.4C0,2.9,2.9,0,6.4,0h46.7
		c3.5,0,6.4,2.9,6.4,6.4V35.1z"/>
	<g>
		<g>
			<g>
				<path class="st1" d="M24,7.7c1.2,0,2.2,0.4,2.8,1l-1,1.4c-0.6-0.4-1.1-0.6-1.7-0.6c-1.3,0-2.2,0.8-2.2,2.1
					c0,1.3,0.9,2.1,2.1,2.1c0.8,0,1.5-0.3,2-0.7l0.9,1.4c-0.9,0.8-2.1,1.1-3.1,1.1c-2.4,0-4.2-1.4-4.2-3.9C19.6,9.1,21.7,7.7,24,7.7
					z"/>
				<path class="st1" d="M33.6,10.5C33.5,9.8,33,9.4,32,9.4c-0.7,0-1.4,0.3-2.3,0.7l-0.8-1.5c1-0.6,2.2-1,3.5-1
					c2.1,0,3.4,1.1,3.4,3.4v4.3H34l-0.2-0.8h-0.1c-0.8,0.6-1.7,1-2.7,1c-1.5,0-2.5-1-2.5-2.3C28.7,11.6,30.1,10.7,33.6,10.5z
					 M31.8,13.8c0.7,0,1.2-0.3,1.8-0.7v-1.2c-2.2,0.1-2.8,0.6-2.8,1.2C30.8,13.6,31.2,13.8,31.8,13.8z"/>
				<path class="st1" d="M38.6,7.8h1.8l0.2,1.6h0c0.7-1.2,1.8-1.8,3-1.8c0.7,0,1,0.1,1.5,0.3l-0.5,1.9c-0.5-0.1-0.8-0.2-1.3-0.2
					c-0.9,0-1.9,0.5-2.5,1.8v3.9h-2.2V7.8z"/>
				<path class="st1" d="M49.9,7.7c0.9,0,1.4,0.3,1.9,0.8l-0.1-1.2V4.7h2.2v10.6h-1.8L52,14.6h0c-0.6,0.5-1.3,1-2.1,1
					c-1.9,0-3.2-1.5-3.2-3.9C46.7,9.2,48.2,7.7,49.9,7.7z M50.4,13.7c0.5,0,0.9-0.2,1.3-0.7v-3c-0.4-0.4-0.8-0.5-1.3-0.5
					c-0.8,0-1.5,0.7-1.5,2.1C48.9,13.1,49.5,13.7,50.4,13.7z"/>
			</g>
			<rect x="4" y="19" class="st2" width="49.4" height="2.9"/>
			<g>
				<path class="st3" d="M45.4,31.4c0,3-2.4,5.4-5.4,5.4c-3,0-5.4-2.4-5.4-5.4c0-3,2.4-5.4,5.4-5.4C43,26.1,45.4,28.5,45.4,31.4z"/>
				<path class="st4" d="M54.5,31.4c0,3-2.4,5.4-5.4,5.4c-3,0-5.4-2.4-5.4-5.4c0-3,2.4-5.4,5.4-5.4C52.1,26.1,54.5,28.5,54.5,31.4z"
					/>
			</g>
		</g>
		<rect x="3.9" y="24.5" class="st2" width="31.4" height="3.1"/>
	</g>
</g>
</svg>
