<?xml version="1.0" encoding="utf-8"?>
<!-- Generator: Adobe Illustrator 22.1.0, SVG Export Plug-In . SVG Version: 6.00 Build 0)  -->
<svg version="1.1" id="Calque_1" xmlns="http://www.w3.org/2000/svg" xmlns:xlink="http://www.w3.org/1999/xlink" x="0px" y="0px"
	 viewBox="0 0 53 52.5" style="enable-background:new 0 0 53 52.5;" xml:space="preserve">
<style type="text/css">
	.st0{fill:#BCC2C6;}
	.st1{fill:#E7E7E7;}
	.st2{fill:#6592FF;}
	.st3{fill:#93B8FF;}
	.st4{opacity:0.4;fill:#D8E7FF;}
	.st5{fill:#5E4D32;}
	.st6{opacity:0.4;fill:#4B381A;}
	.st7{fill:#4B381A;}
</style>
<g>
	
		<rect x="35.7" y="32.7" transform="matrix(0.7071 -0.7071 0.7071 0.7071 -15.1293 37.2548)" class="st0" width="3.3" height="8.4"/>
	<path class="st1" d="M35.5,6.1c8.1,8.1,8.1,21.3,0,29.4c-4.1,4.1-9.4,5.3-14.7,5.3c-5.3,0-10.6-1.2-14.7-5.3
		C-2,27.4-2,14.2,6.1,6.1C14.2-2,27.4-2,35.5,6.1z"/>
	<path class="st0" d="M35.5,34.7c-8.1,8.1-21.3,8.1-29.4,0c-4-4-6-9.1-6.1-14.3c-0.1,5.5,1.9,11,6.1,15.1c8.1,8.1,21.3,8.1,29.4,0
		c4.2-4.2,6.2-9.7,6.1-15.1C41.5,25.6,39.5,30.7,35.5,34.7z"/>
	<path class="st2" d="M32.5,9.1c6.5,6.5,6.5,16.9,0,23.4C26,39,15.6,39,9.1,32.5C2.6,26,2.6,15.6,9.1,9.1C15.6,2.6,26,2.6,32.5,9.1z
		"/>
	<path class="st3" d="M20.8,7.4c8.2,0,14.9,6.3,14.9,14.2c0,7.8-6.7,14.2-14.9,14.2c-8.2,0-14.9-6.3-14.9-14.2
		C5.9,13.8,12.6,7.4,20.8,7.4z"/>
	<path class="st4" d="M16.5,17.4c4.3-4,10.8-4.7,15.8-2.1c-0.6-1-1.3-2-2.2-2.8c-5.2-4.9-13.6-4.9-18.8,0c-5.2,4.9-5.2,12.9,0,17.8
		c0.9,0.9,1.9,1.6,3,2.1C11.5,27.5,12.2,21.4,16.5,17.4z"/>
	<path class="st5" d="M37,36.5c-1.8,1.9-2.8,3.9,4,10.7c6.8,6.8,8.8,5.8,10.7,4c1.8-1.9,2.8-3.9-4-10.7C41,33.7,39,34.7,37,36.5z"/>
	<path class="st6" d="M50.9,49c-1.8,1.7-3.6,2.6-9.7-3.7c-3.1-3.1-4.4-5.1-4.7-6.6c-0.4,1.5,0.4,3.8,4.7,8.1c6.2,6.2,8,5.4,9.7,3.7
		C51.8,49.7,51.5,48.5,50.9,49z"/>
	<path class="st7" d="M51.2,50.9c-0.9,0.9-1.9,1.3-2.3,0.9c-0.4-0.4,0-1.4,0.9-2.3c0.9-0.9,1.9-1.3,2.3-0.9
		C52.5,49,52.1,50,51.2,50.9z"/>
</g>
</svg>
